<?xml version="1.0" standalone="no"?><!DOCTYPE svg PUBLIC "-//W3C//DTD SVG 1.1//EN" "http://www.w3.org/Graphics/SVG/1.1/DTD/svg11.dtd"><svg t="1610692722284" class="icon" viewBox="0 0 1024 1024" version="1.1" xmlns="http://www.w3.org/2000/svg" p-id="3735" xmlns:xlink="http://www.w3.org/1999/xlink" width="200" height="200"><defs><style type="text/css"></style></defs><path d="M481.984 152h60.032c5.312 0 8 2.688 8 8v704c0 5.312-2.688 8-8 8H481.92c-5.312 0-8-2.688-8-8v-704c0-5.312 2.688-8 8-8zM176 473.984h672c5.312 0 8 2.688 8 8v60.032c0 5.312-2.688 8-8 8H176c-5.312 0-8-2.688-8-8V481.92c0-5.312 2.688-8 8-8z" p-id="3736"></path></svg>