<?xml version="1.0" standalone="no"?><!DOCTYPE svg PUBLIC "-//W3C//DTD SVG 1.1//EN" "http://www.w3.org/Graphics/SVG/1.1/DTD/svg11.dtd"><svg t="1612757349421" class="icon" viewBox="0 0 1024 1024" version="1.1" xmlns="http://www.w3.org/2000/svg" p-id="4563" xmlns:xlink="http://www.w3.org/1999/xlink" width="64" height="64"><defs><style type="text/css"></style></defs><path d="M144 112h360c4.288 0 7.872 3.456 8 7.744v56.256a8 8 0 0 1-7.744 8H184v656h656v-320c0-4.288 3.456-7.872 7.744-8h56.256c4.288 0 7.872 3.456 8 7.744v360.256a32 32 0 0 1-31.488 32H144a32 32 0 0 1-32-31.488V144a32 32 0 0 1 31.488-32h360.512H144z m516.096 62.592l178.112-9.152a9.344 9.344 0 0 1 9.472 9.216v0.256l-9.216 178.112c-0.256 6.528-8.064 8.832-13.12 3.968l-0.192-0.128-57.28-57.344-207.296 207.232c-2.816 2.88-7.744 2.56-11.072-0.512l-0.192-0.192-42.24-42.24c-3.2-3.2-3.648-8.192-0.96-11.136l0.192-0.192 207.232-207.232-57.28-57.28c-4.992-4.992-2.752-12.8 3.584-13.312h0.256l178.112-9.216-178.112 9.152z" p-id="4564"></path></svg>